# xmcd
#
# Track frame offsets: 
#        150
#        2350
#        14462
#        25616
#        50169
#        61789
#        120472
#        152037
#        171665
#        205910
#        251147
#        254482
#        256933
#        259243
#        262813
#        268531
#        271556
#
# Disc length: 3656 seconds
#
# Revision: 0
# Processed by: cddbd v1.5.2PL0 Copyright (c) Steve Scherf et al.
# Submitted via: ExactAudioCopyFreeDBPlugin 1.0
#
DISCID=e40e4611
DTITLE=Absolventen, Dozenten und Studenten der Hochschule für Musik Ha
DTITLE=nns Eisler Berlin - Dieses Gefühl
DYEAR=2007
DGENRE=Classical
TTITLE0=Auftrittsbeifall
TTITLE1=Wollenweber, Lämmermann, Aubert, Meyer - Britten - Phantasy Qu
TTITLE1=artet for Oboe and String Trio, op. 2 (1932) - I. Andante alla
TTITLE1=marcia
TTITLE2=Wollenweber, Lämmermann, Aubert, Meyer - II. Allegro giusto
TTITLE3=Wollenweber, Lämmermann, Aubert, Meyer - III. Andante
TTITLE4=Wollenweber, Lämmermann, Aubert, Meyer - IV. Andate alla marci
TTITLE4=a
TTITLE5=Marton, Picard, Küssner, Arp, Saksala - Schubert - Klavierkuin
TTITLE5=tett A-Dur, D667 - I. Allegro vivace
TTITLE6=Marton, Picard, Küssner, Arp, Saksala - II. Andante
TTITLE7=Marton, Picard, Küssner, Arp, Saksala - III. Scherzo. Presto
TTITLE8=Marton, Picard, Küssner, Arp, Saksala - IV. Andantino - Thema
TTITLE9=Marton, Picard, Küssner, Arp, Saksala - V. Allego giusto
TTITLE10=Rubens Quartett - Webern - Sechs Bagatellen für Streichquarte
TTITLE10=tt op. 9 (1911-13) - I. Mässig
TTITLE11=Rubens Quartett - II. Leicht bewegt
TTITLE12=Rubens Quartett - III. Ziemlich fliessend
TTITLE13=Rubens Quartett - IV. Sehr langsam
TTITLE14=Rubens Quartett - V. Äusserst langsam
TTITLE15=Rubens Quartett - VI. Fliessend
TTITLE16=Beifall
EXTD=
EXTT0=
EXTT1=
EXTT2=
EXTT3=
EXTT4=
EXTT5=
EXTT6=
EXTT7=
EXTT8=
EXTT9=
EXTT10=
EXTT11=
EXTT12=
EXTT13=
EXTT14=
EXTT15=
EXTT16=
PLAYORDER=
